<svg xmlns="http://www.w3.org/2000/svg" width="39.156" height="39.119" viewBox="0 0 39.156 39.119"><defs><style>.a{fill:#00989f;}</style></defs><path class="a" d="M-890.043-36.965l-7.294-7.279a.552.552,0,0,1-.163-.392.552.552,0,0,1,.163-.391l20.675-20.635a.558.558,0,0,1,.787,0l7.294,7.279a.558.558,0,0,1,0,.785l-20.676,20.634a.552.552,0,0,1-.393.163A.554.554,0,0,1-890.043-36.965Zm22.938-26.725a6.17,6.17,0,0,1-2.1-1.391,6.15,6.15,0,0,1-1.392-2.1,6.422,6.422,0,0,1-.464-2.4,6.436,6.436,0,0,1,.464-2.4,6.15,6.15,0,0,1,1.391-2.1,6.2,6.2,0,0,1,2.105-1.391,6.483,6.483,0,0,1,4.8,0A6.164,6.164,0,0,1-860.2-74.07a6.208,6.208,0,0,1,1.392,2.1,6.541,6.541,0,0,1,.462,2.4,6.484,6.484,0,0,1-.462,2.4,6.211,6.211,0,0,1-1.394,2.1,6.179,6.179,0,0,1-2.1,1.391,6.494,6.494,0,0,1-2.4.463A6.532,6.532,0,0,1-867.105-63.69Z" transform="translate(897.5 75.921)"/></svg>