<?xml version="1.0" encoding="UTF-8"?>
<!DOCTYPE svg PUBLIC "-//W3C//DTD SVG 1.1//EN" "http://www.w3.org/Graphics/SVG/1.1/DTD/svg11.dtd">
<!-- Creator: CorelDRAW X7 -->
<svg xmlns="http://www.w3.org/2000/svg" xml:space="preserve" width="421.817mm" height="421.815mm" version="1.1" style="shape-rendering:geometricPrecision; text-rendering:geometricPrecision; image-rendering:optimizeQuality; fill-rule:evenodd; clip-rule:evenodd"
viewBox="0 0 2865 2865"
 xmlns:xlink="http://www.w3.org/1999/xlink">
 <defs>
  <style type="text/css">
   <![CDATA[
    .fil0 {fill:#F2F2F2}
    .fil2 {fill:#B5B5B5;fill-rule:nonzero}
    .fil5 {fill:#C7E1C9;fill-rule:nonzero}
    .fil4 {fill:#F2F2F2;fill-rule:nonzero}
    .fil1 {fill:#FF9981;fill-rule:nonzero}
    .fil3 {fill:white;fill-rule:nonzero}
   ]]>
  </style>
 </defs>
 <g id="Capa_x0020_1">
  <metadata id="CorelCorpID_0Corel-Layer"/>
  <path class="fil0" d="M1433 0c791,0 1432,641 1432,1433 0,791 -641,1432 -1432,1432 -792,0 -1433,-641 -1433,-1432 0,-792 641,-1433 1433,-1433z"/>
  <path class="fil1" d="M756 2116c2,-5 4,-9 6,-13 2,-5 4,-9 6,-13 6,-12 12,-25 18,-37 5,-10 11,-19 19,-27 6,-6 13,-11 20,-16 6,-3 11,-7 17,-10 2,-1 3,-3 5,-4 14,-9 28,-17 42,-25 23,-12 46,-23 69,-34 24,-11 47,-21 71,-31 1,0 1,0 2,0 12,-5 24,-10 37,-14 9,-4 18,-7 27,-10 19,-7 37,-13 55,-19 13,-4 25,-8 38,-12 4,-2 9,-3 14,-4 0,0 348,-28 479,-5 25,4 50,11 74,18 35,11 70,24 104,37 1,1 3,2 4,2 11,5 21,9 31,13 21,9 42,18 62,28 12,5 23,10 34,16 8,3 15,7 22,11 10,6 16,15 22,24 3,5 6,10 9,15 3,4 6,9 9,14 8,13 15,26 23,40 10,18 20,36 29,54 1,2 1,3 2,5 -25,25 -51,48 -78,70 -181,113 -395,179 -625,179 -128,0 -252,-20 -368,-59 -104,-47 -199,-113 -279,-193zm1272 72c-181,114 -395,180 -625,180 -128,0 -252,-20 -368,-59 121,55 256,86 398,86 224,0 431,-77 595,-207z"/>
  <g id="_1673145446496">
   <path class="fil2" d="M1844 683c23,19 45,40 56,67 10,24 11,50 18,75 16,54 59,95 85,144 25,47 33,102 25,154 -7,42 -25,85 -15,126 13,53 65,85 91,131 21,37 24,81 26,124 2,64 1,129 -2,194l-621 0c0,12 1,-12 1,0 -36,-45 -55,-65 -63,-121 -7,-57 -5,-114 -3,-171 6,-149 11,-299 38,-445 22,-123 59,-242 96,-361 3,-8 6,-16 13,-21 25,-19 58,-37 86,-26 45,18 132,100 169,130z"/>
   <path class="fil2" d="M993 748c-35,38 -59,85 -69,136 -18,84 -2,179 -48,251 -20,32 -50,54 -74,83 -49,59 -68,139 -68,216 0,77 18,153 36,228 3,12 10,24 13,36l672 0c-3,0 -1,5 2,4 2,-1 3,-5 3,-8 8,-165 27,-332 6,-496 -25,-192 -105,-374 -215,-531 -22,-32 61,-102 41,-134 -48,14 -155,100 -193,127 -37,28 -75,54 -106,88z"/>
   <path class="fil2" d="M1679 555c41,28 62,77 102,106 14,11 30,18 44,29 26,18 46,46 54,77 15,53 -1,113 26,160 11,20 29,35 40,55 21,35 18,78 21,119 2,25 6,51 1,76 -6,28 -25,52 -43,75 -13,16 -26,32 -45,40 -27,12 -59,2 -87,-8 -23,-8 -46,-16 -64,-32 -36,-33 -40,-86 -43,-134 -3,-48 -8,-96 -15,-143 -3,-26 -7,-52 -17,-77 -16,-39 -46,-71 -64,-110 -18,-41 -21,-86 -24,-131 -1,-25 -17,-99 3,-115 26,-23 87,-2 111,13z"/>
   <path class="fil2" d="M1566 617c-2,-28 -7,-58 -26,-80 -24,-27 -64,-34 -101,-35 -42,0 -84,7 -123,21 -20,6 -40,15 -55,28 -20,17 -33,40 -50,60 -47,58 -125,91 -159,157 -30,58 -19,127 -36,189 -11,41 -36,82 -25,124 6,27 28,49 51,67 16,13 35,25 56,30 47,10 93,-18 127,-50 55,-52 95,-120 159,-160 34,-20 72,-33 103,-57 87,-67 88,-196 79,-294z"/>
  </g>
  <path class="fil3" d="M1704 1847c0,0 -44,196 -266,196 -221,0 -236,-196 -236,-196 0,0 29,-31 59,-106 19,-48 37,-126 48,-177 7,-29 11,-49 11,-49l266 0c0,0 3,18 9,47 5,31 13,73 20,119 15,90 89,166 89,166z"/>
  <path class="fil4" d="M1595 1562c-12,37 -32,72 -58,99 -11,11 -23,22 -37,28 -46,23 -105,2 -140,-36 -24,-25 -39,-56 -51,-89 -1,-3 -2,-6 -3,-9 -5,-16 -15,-32 -1,-40 8,-5 35,-1 51,0 3,0 6,0 8,0 1,0 2,0 4,0l218 0c0,0 3,18 9,47z"/>
  <path class="fil3" d="M1799 1294c-1,4 -2,9 -3,13 -30,113 -105,221 -208,276 -109,59 -241,34 -332,-48 -74,-67 -123,-164 -145,-265 -11,-52 -15,-104 -13,-154 10,-170 98,-358 264,-419 42,-16 88,-24 133,-23 55,1 108,16 152,46 63,42 108,107 134,179 44,122 49,269 18,395z"/>
  <path class="fil3" d="M1788 1175c6,-28 50,-62 71,-69 63,-23 100,62 85,123 -13,53 -52,102 -96,121 -13,6 -105,15 -105,18 0,0 45,-193 45,-193z"/>
  <path class="fil3" d="M1110 1160c-7,-28 -50,-61 -71,-69 -63,-22 -100,63 -85,124 12,52 52,101 95,121 14,6 106,14 106,17 0,0 -45,-192 -45,-193z"/>
  <path class="fil5" d="M1802 1251c0,0 -1,26 -20,82l-28 67 59 -41c9,-1 19,-3 26,-5l-93 65 -6 14 0 0c-11,20 -24,39 -40,58 -51,64 -127,118 -234,129l0 0c-4,1 -7,1 -10,1 -31,3 -59,0 -85,-6 -27,-6 -51,-17 -72,-30 -49,-31 -84,-78 -110,-126 -8,-17 -16,-34 -22,-50 -3,-7 -6,-14 -8,-21l-85 -46c11,2 23,3 29,3l51 28c-22,-68 -27,-124 -27,-124 0,0 5,-3 15,-7 -2,-12 -20,-106 -62,-138 -20,-16 -36,-17 -48,-14 -6,-2 -13,-3 -21,-2 13,-9 40,-21 76,7 43,34 62,122 65,142 8,-3 17,-7 27,-11 51,-19 135,-45 238,-49 16,-1 32,-1 48,-1 17,0 32,1 48,2 0,0 0,0 0,0 24,2 48,5 70,9 75,12 134,30 172,44 9,-28 42,-121 91,-137 15,-5 31,-3 46,8l0 1c-7,-2 -15,-1 -22,1 -7,-2 -14,-2 -21,0 -43,15 -75,105 -84,131 24,9 37,16 37,16z"/>
  <path class="fil2" d="M1523 815c-6,37 1,74 11,110 2,4 3,9 1,13 -2,6 -10,7 -17,8 -94,9 -189,17 -284,26 -7,-28 -28,-63 28,-213 0,0 -76,86 -81,218 -22,2 -44,4 -66,6 2,3 3,9 4,17 4,65 3,130 0,194 -7,2 -12,-5 -15,-11 -18,-35 -36,-72 -39,-111 -1,-23 3,-47 15,-66 5,-8 10,-16 16,-21l-14 1c-12,-92 39,-182 101,-251 70,-76 157,-139 257,-163 27,-7 56,-11 82,-2 25,8 39,24 45,43 7,-10 18,-15 35,-12 67,13 129,74 167,126 67,92 100,207 91,320l-4 -2c-1,10 -3,20 -6,30 -9,31 -25,59 -44,86 -2,3 -4,7 -8,9 -4,1 -9,1 -11,-2 -2,-2 -2,-5 -2,-7 -1,-41 -2,-81 -3,-122 0,-8 -1,-19 -2,-29l-128 -60c2,-61 -39,-114 -63,-170 -6,-13 -18,-47 -25,-81 -2,8 -4,15 -7,21 -13,31 -28,62 -34,95z"/>
 </g>
</svg>
